<svg xmlns="http://www.w3.org/2000/svg" viewBox="0 0 32 32">
  <!-- Rounded navy background -->
  <rect width="32" height="32" rx="7" fill="#0c2340"/>

  <!-- Sun body -->
  <circle cx="16" cy="13" r="5" fill="#f5c842"/>

  <!-- Sun rays -->
  <line x1="16" y1="5" x2="16" y2="3"  stroke="#f5c842" stroke-width="1.8" stroke-linecap="round"/>
  <line x1="16" y1="23" x2="16" y2="21" stroke="#f5c842" stroke-width="1.8" stroke-linecap="round"/>
  <line x1="8"  y1="13" x2="6"  y2="13" stroke="#f5c842" stroke-width="1.8" stroke-linecap="round"/>
  <line x1="24" y1="13" x2="26" y2="13" stroke="#f5c842" stroke-width="1.8" stroke-linecap="round"/>
  <line x1="10.5" y1="7.5"  x2="9.1"  y2="6.1"  stroke="#f5c842" stroke-width="1.8" stroke-linecap="round"/>
  <line x1="21.5" y1="18.5" x2="22.9" y2="19.9" stroke="#f5c842" stroke-width="1.8" stroke-linecap="round"/>
  <line x1="21.5" y1="7.5"  x2="22.9" y2="6.1"  stroke="#f5c842" stroke-width="1.8" stroke-linecap="round"/>
  <line x1="10.5" y1="18.5" x2="9.1"  y2="19.9" stroke="#f5c842" stroke-width="1.8" stroke-linecap="round"/>

  <!-- Waves -->
  <path d="M1 24 Q5 21.5 9 24 Q13 26.5 17 24 Q21 21.5 25 24 Q28 25.8 31 24" stroke="#5eadd4" stroke-width="2" fill="none" stroke-linecap="round"/>
  <path d="M1 28 Q5 25.5 9 28 Q13 30.5 17 28 Q21 25.5 25 28 Q28 29.8 31 28" stroke="#93c5e8" stroke-width="2" fill="none" stroke-linecap="round"/>
</svg>
